<?xml version="1.0" encoding="UTF-8" standalone="no"?>
<!-- Generator: Adobe Illustrator 19.2.1, SVG Export Plug-In . SVG Version: 6.00 Build 0)  -->

<svg
   version="1.1"
   id="Layer_1"
   x="0px"
   y="0px"
   viewBox="0 0 200.01805 93.999997"
   xml:space="preserve"
   sodipodi:docname="rancher-logo-horiz-color.svg"
   width="200.01805"
   height="94"
   inkscape:version="1.1.1 (3bf5ae0d25, 2021-09-20)"
   xmlns:inkscape="http://www.inkscape.org/namespaces/inkscape"
   xmlns:sodipodi="http://sodipodi.sourceforge.net/DTD/sodipodi-0.dtd"
   xmlns="http://www.w3.org/2000/svg"
   xmlns:svg="http://www.w3.org/2000/svg"><defs
   id="defs37">
	
	

		
		
	
		
		
	</defs><sodipodi:namedview
   id="namedview35"
   pagecolor="#ffffff"
   bordercolor="#666666"
   borderopacity="1.0"
   inkscape:pageshadow="2"
   inkscape:pageopacity="0.0"
   inkscape:pagecheckerboard="0"
   showgrid="false"
   fit-margin-top="0"
   fit-margin-left="0"
   fit-margin-right="0"
   fit-margin-bottom="0"
   inkscape:zoom="5.4990583"
   inkscape:cx="100.83545"
   inkscape:cy="46.735275"
   inkscape:window-width="3840"
   inkscape:window-height="2111"
   inkscape:window-x="0"
   inkscape:window-y="49"
   inkscape:window-maximized="1"
   inkscape:current-layer="Layer_1" />
<style
   type="text/css"
   id="style2">
	.st0{fill:#2453FF;}
	.st1{fill:#000000;}
	.st2{fill:#CCCCCC;}
	.st3{fill:#B3B3B3;}
	.st4{fill:#FFFFFF;}
</style>
<path
   class="st0"
   d="m 199.91384,20.6 -2.2,-13 c -0.7,-4.2 -2.3,-7.6 -3.6,-7.6 -1.3,0 -2.4,3.5 -2.4,7.7 v 3.4 c 0,4.2 -3.5,7.7 -7.7,7.7 h -3.4 c -0.2,0 -0.5,0 -0.7,0 v 9.4 c 0.2,0 0.5,0 0.7,0 h 12.8 c 4.3,0 7.2,-3.4 6.5,-7.6"
   id="path4" /><path
   class="st0"
   d="m 169.21384,9.6 h -20.8 c -0.2,0 -0.3,0 -0.5,0 h -21.3 c -0.3,0 -0.5,0 -0.7,0.1 v -2 c 0,-4.2 -1.1,-7.7 -2.4,-7.7 -1.3,0 -2.9,3.4 -3.6,7.6 l -2.2,13 c -0.7,4.2 2.2,7.6 6.4,7.6 h 12.8 c 1.3,0 2.6,-0.2 3.6,-0.6 -0.4,2.2 -2.3,3.8 -4.6,3.8 h -18 c -2.9,0 -5.1,-2.6 -4.6,-5.5 l 1.8,-10.9 c 0.5,-2.9 -1.7,-5.5 -4.6,-5.5 H 21.313844 c -1.9,0 -3.5,1.1 -4.3,2.8 L 0.21384388,38 c -0.3,0.4 -0.3,1 0.1,1.4 l 3.30000002,3.9 c 0.4,0.5 1.1,0.6 1.6,0.2 l 11.4000001,-9 v 54.8 c 0,2.6 2.1,4.7 4.7,4.7 h 25.4 c 2.6,0 4.7,-2.1 4.7,-4.7 v -19 c 0,-2.6 2.1,-4.7 4.7,-4.7 h 63.299996 c 2.6,0 4.7,2.1 4.7,4.7 v 19 c 0,2.6 2.1,4.7 4.7,4.7 h 25.4 c 2.6,0 4.7,-2.1 4.7,-4.7 V 68.6 h -13.5 c -4.2,0 -7.7,-3.5 -7.7,-7.7 V 47.8 c 0,-2.5 1.2,-4.7 3.1,-6.1 v 15.7 c 0,4.2 3.5,7.7 7.7,7.7 h 20.7 c 4.2,0 7.7,-3.5 7.7,-7.7 v -40 c 0,-4.3 -3.5,-7.8 -7.7,-7.8"
   id="path6" />
</svg>
